Coordinates
version=1
nRows=4
nColumns=114
inDegrees=yes

Units are S.I. units (second, meters, Newtons, ...)
If the header above contains a line with 'inDegrees', this indicates whether rotational values are in degrees (yes) or radians (no).

endheader 
time	pelvis_tilt	pelvis_list	pelvis_rotation	pelvis_tx	pelvis_ty	pelvis_tz	hip_flexion_l	hip_adduction_l	hip_rotation_l	hip_flexion_r	hip_adduction_r	hip_rotation_r	knee_angle_l	knee_angle_r	ankle_angle_l	ankle_angle_r	subtalar_angle_l	subtalar_angle_r	mtp_angle_l	mtp_angle_r	lumbar_extension	lumbar_bending	lumbar_rotation	arm_flex_l	arm_add_l	arm_rot_l	arm_flex_r	arm_add_r	arm_rot_r	elbow_flex_l	elbow_flex_r	pro_sup_l	pro_sup_r	addbrev_l/activation	addlong_l/activation	addmagDist_l/activation	addmagIsch_l/activation	addmagMid_l/activation	addmagProx_l/activation	bflh_l/activation	bfsh_l/activation	edl_l/activation	ehl_l/activation	fdl_l/activation	fhl_l/activation	gaslat_l/activation	gasmed_l/activation	glmax1_l/activation	glmax2_l/activation	glmax3_l/activation	glmed1_l/activation	glmed2_l/activation	glmed3_l/activation	glmin1_l/activation	glmin2_l/activation	glmin3_l/activation	grac_l/activation	iliacus_l/activation	perbrev_l/activation	perlong_l/activation	piri_l/activation	psoas_l/activation	recfem_l/activation	sart_l/activation	semimem_l/activation	semiten_l/activation	soleus_l/activation	tfl_l/activation	tibant_l/activation	tibpost_l/activation	vasint_l/activation	vaslat_l/activation	vasmed_l/activation	addbrev_r/activation	addlong_r/activation	addmagDist_r/activation	addmagIsch_r/activation	addmagMid_r/activation	addmagProx_r/activation	bflh_r/activation	bfsh_r/activation	edl_r/activation	ehl_r/activation	fdl_r/activation	fhl_r/activation	gaslat_r/activation	gasmed_r/activation	glmax1_r/activation	glmax2_r/activation	glmax3_r/activation	glmed1_r/activation	glmed2_r/activation	glmed3_r/activation	glmin1_r/activation	glmin2_r/activation	glmin3_r/activation	grac_r/activation	iliacus_r/activation	perbrev_r/activation	perlong_r/activation	piri_r/activation	psoas_r/activation	recfem_r/activation	sart_r/activation	semimem_r/activation	semiten_r/activation	soleus_r/activation	tfl_r/activation	tibant_r/activation	tibpost_r/activation	vasint_r/activation	vaslat_r/activation	vasmed_r/activation
          0.50000000	        -12.10183668	        -18.05995775	        -52.08493613	          1.40729741	          0.93722558	          0.20752929	         -8.01814349	        -15.06787759	        -11.47930764	         33.32530626	         13.01448267	        -27.55355964	         18.67017076	        107.82258091	         17.58549362	        -13.40472754	         -4.51131555	        -24.23915215	          4.99898368	        -38.24550548	        -15.61060211	         12.92612225	          2.97568624	         -2.32184289	        -23.66760854	         -0.79477336	          7.16789534	        -32.00231992	         22.87449252	         25.79973109	         49.97714301	        113.35720813	        100.29195124	          0.01645467	          0.01801610	          0.01106159	          0.01186750	          0.01168190	          0.01066233	          0.01011151	          0.03278544	          0.02464334	          0.02362996	          0.02558104	          0.02315204	          0.03119633	          0.07460605	          0.01018300	          0.01011150	          0.01009155	          0.24241435	          0.01042050	          0.01015089	          0.11633086	          0.01124504	          0.01064672	          0.01186453	          0.09375193	          0.01795708	          0.01496163	          0.03434781	          0.03828197	          0.27918867	          0.04196343	          0.01029272	          0.01070687	          0.22214114	          0.17035013	          0.01499982	          0.12179625	          0.01091954	          0.01026227	          0.01059934	          0.01810969	          0.02234991	          0.01073863	          0.01035219	          0.01317318	          0.02552943	          0.01143757	          0.05051751	          0.05743908	          0.03027088	          0.02048049	          0.01579789	          0.02534659	          0.02681244	          0.01035190	          0.01017355	          0.01031649	          0.01034789	          0.01072258	          0.01125636	          0.01085064	          0.01118573	          0.01290512	          0.02937136	          0.27309149	          0.02718892	          0.03907306	          0.23073356	          0.43641654	          0.02001172	          0.33206013	          0.01038730	          0.01042970	          0.01030690	          0.03610665	          0.05204454	          0.01308094	          0.01067500	          0.01027905	          0.01049799	
          0.51000000	        -12.06387550	        -18.11313631	        -52.08543434	          1.40525881	          0.93893739	          0.20705713	         -8.15287541	        -15.17981206	        -11.72595351	         33.41033715	         12.97629606	        -27.77691951	         18.40209201	        108.02783450	         17.67619355	        -13.31062996	         -4.14269951	        -24.20973329	          3.63606260	        -33.71914297	        -15.57003415	         12.92551771	          3.19110478	         -2.07233329	        -23.61414228	         -0.31763454	          7.23749525	        -32.35971638	         23.00028758	         25.24311840	         49.92507475	        113.19569295	        100.31959026	          0.01438669	          0.01529197	          0.01140414	          0.01112441	          0.01155579	          0.01515479	          0.01686362	          0.03101889	          0.02362221	          0.02388872	          0.03052192	          0.04363928	          0.06761284	          0.10408209	          0.03954157	          0.03184778	          0.01739962	          0.20220265	          0.08596464	          0.05462750	          0.09729248	          0.07170993	          0.04763174	          0.01618015	          0.07835577	          0.02436727	          0.02132384	          0.03370224	          0.03269720	          0.23284367	          0.04918048	          0.01091175	          0.01216985	          0.23001257	          0.14230183	          0.01344466	          0.15387946	          0.01581391	          0.01205886	          0.01427729	          0.01568239	          0.01959909	          0.01115798	          0.01078378	          0.01275956	          0.02546729	          0.12554544	          0.21699385	          0.04955094	          0.02948949	          0.02321062	          0.01990033	          0.03334189	          0.03768752	          0.01133993	          0.01064228	          0.01067446	          0.01226234	          0.01878289	          0.03534583	          0.01485611	          0.02017953	          0.02908152	          0.07160035	          0.22798155	          0.03095146	          0.04049273	          0.19304367	          0.36385988	          0.01691931	          0.27836751	          0.02653355	          0.02184248	          0.01144354	          0.11473016	          0.04426545	          0.01566565	          0.01053401	          0.01019356	          0.01037130	
          0.52000000	        -12.12423655	        -18.19773274	        -52.07136390	          1.40303553	          0.94042167	          0.20638721	         -8.06646342	        -15.34913307	        -11.54895225	         33.68216833	         13.06097633	        -28.06743025	         18.38504100	        108.15421617	         17.67641644	        -13.37677748	         -4.35106333	        -24.45952062	          2.26051419	        -29.73052831	        -15.56245421	         13.04891458	          3.18481915	         -2.52951533	        -23.58928654	         -0.56375027	          7.86399695	        -32.47259553	         23.08257728	         25.51470292	         49.70704583	        113.32352597	        101.35725398	          0.01322733	          0.01324980	          0.01287652	          0.01458458	          0.01204210	          0.01397842	          0.01618627	          0.02945350	          0.02030876	          0.02435331	          0.05919038	          0.09465234	          0.09198704	          0.10346583	          0.03339285	          0.02688278	          0.01604667	          0.16975061	          0.07205392	          0.04571448	          0.08189136	          0.06069061	          0.04040739	          0.01585725	          0.06566764	          0.02060106	          0.01789163	          0.03024177	          0.02796720	          0.19474920	          0.04254935	          0.01770103	          0.01779298	          0.24404299	          0.11926877	          0.03521658	          0.17926558	          0.01845608	          0.01374979	          0.01677261	          0.01367917	          0.01731382	          0.01083822	          0.01063919	          0.01198852	          0.02465663	          0.14037484	          0.22549033	          0.04483408	          0.02875524	          0.02386106	          0.02084476	          0.03730537	          0.04390890	          0.01140425	          0.01070500	          0.01050592	          0.01840806	          0.02869317	          0.04059417	          0.02165311	          0.03185586	          0.03934552	          0.09076020	          0.19298078	          0.03129923	          0.03891026	          0.17437050	          0.30373057	          0.01438065	          0.32667424	          0.10982575	          0.08845932	          0.01248372	          0.10984913	          0.03929284	          0.01646021	          0.01036359	          0.01013426	          0.01025425	
          0.53000000	        -12.20593990	        -18.28551537	        -52.06061725	          1.40089639	          0.94175133	          0.20585379	         -7.93088045	        -15.52105003	        -11.23995596	         33.96102248	         13.19071343	        -28.34943687	         18.44799511	        108.23238351	         17.65297048	        -13.49362114	         -4.72318611	        -24.78602762	          0.88919527	        -26.21549629	        -15.52765111	         13.19045175	          3.10271426	         -3.30448130	        -23.56761066	         -1.00602403	          8.47511436	        -32.51946461	         23.24528599	         25.95963859	         49.43160726	        113.53442971	        102.69640997	          0.01324551	          0.01239803	          0.01290140	          0.01455883	          0.01219328	          0.01329345	          0.01388043	          0.02823931	          0.01766711	          0.02391647	          0.05923479	          0.09397308	          0.08557574	          0.08981056	          0.02803020	          0.02254093	          0.01377236	          0.14461938	          0.06030484	          0.03820992	          0.07055115	          0.05138552	          0.03422140	          0.01555866	          0.05560056	          0.01748938	          0.01509883	          0.02704200	          0.02477443	          0.18331936	          0.03802649	          0.01508004	          0.01585884	          0.22441858	          0.10090745	          0.07489369	          0.18200678	          0.02212408	          0.01759634	          0.02075128	          0.01257311	          0.01588835	          0.01080459	          0.01062125	          0.01182729	          0.02442151	          0.13815867	          0.25565323	          0.04354095	          0.02915678	          0.02385114	          0.02055199	          0.03884135	          0.04600303	          0.01123500	          0.01061894	          0.01047792	          0.01729678	          0.02773906	          0.03797145	          0.02144701	          0.03169358	          0.03895505	          0.10719539	          0.17897427	          0.03153413	          0.03906503	          0.17961002	          0.25455893	          0.01244569	          0.36327546	          0.09576314	          0.07629688	          0.01182525	          0.10606261	          0.03683806	          0.01634947	          0.01032434	          0.01012015	          0.01022727	
